HIERARCHY
ROOT Hips
{
    OFFSET 0.000000 0.000000 0.000000
    CHANNELS 6 Xposition Yposition Zposition Zrotation Xrotation Yrotation
    JOINT Spine
    {
        OFFSET -0.000000 8.339920 0.000000
        CHANNELS 3 Zrotation Xrotation Yrotation
        JOINT Spine1
        {
            OFFSET -0.000000 25.214485 0.000000
            CHANNELS 3 Zrotation Xrotation Yrotation
            JOINT Neck
            {
                OFFSET -0.000000 25.110935 2.282812
                CHANNELS 3 Zrotation Xrotation Yrotation
                JOINT Head
                {
                    OFFSET -0.000000 14.238888 -2.034127
                    CHANNELS 3 Zrotation Xrotation Yrotation
                    End Site
                    {
                        OFFSET -0.000000 25.426584 0.000000
                    }
                }
            }
            JOINT LeftShoulder
            {
                OFFSET 4.025024 23.158985 -0.185822
                CHANNELS 3 Zrotation Xrotation Yrotation
                JOINT LeftArm
                {
                    OFFSET 11.674057 0.000000 0.000000
                    CHANNELS 3 Zrotation Xrotation Yrotation
                    JOINT LeftForeArm
                    {
                        OFFSET 31.688633 0.000000 0.000000
                        CHANNELS 3 Zrotation Xrotation Yrotation
                        JOINT LeftHand
                        {
                            OFFSET 29.704493 0.000000 0.000000
                            CHANNELS 3 Zrotation Xrotation Yrotation
                            End Site
                            {
                                OFFSET 15.255952 0.000000 0.000000
                            }
                        }
                    }
                }
            }
            JOINT RightShoulder
            {
                OFFSET -4.099539 23.158985 -0.185822
                CHANNELS 3 Zrotation Xrotation Yrotation
                JOINT RightArm
                {
                    OFFSET -11.674057 0.000000 0.000000
                    CHANNELS 3 Zrotation Xrotation Yrotation
                    JOINT RightForeArm
                    {
                        OFFSET -31.688633 0.000000 0.000000
                        CHANNELS 3 Zrotation Xrotation Yrotation
                        JOINT RightHand
                        {
                            OFFSET -29.704493 0.000000 0.000000
                            CHANNELS 3 Zrotation Xrotation Yrotation
                            End Site
                            {
                                OFFSET -15.255952 0.000000 0.000000
                            }
                        }
                    }
                }
            }
        }
    }
    JOINT LeftUpLeg
    {
        OFFSET 10.170634 0.000000 0.000000
        CHANNELS 3 Zrotation Xrotation Yrotation
        JOINT LeftLeg
        {
            OFFSET -0.000000 -41.352962 0.000000
            CHANNELS 3 Zrotation Xrotation Yrotation
            JOINT LeftFoot
            {
                OFFSET -0.000000 -47.535004 0.000000
                CHANNELS 3 Zrotation Xrotation Yrotation
                JOINT LeftToeBase
                {
                    OFFSET -0.000000 -6.610912 15.255952
                    CHANNELS 3 Zrotation Xrotation Yrotation
                    End Site
                    {
                        OFFSET -0.000000 0.000000 4.068254
                    }
                }
            }
        }
    }
    JOINT RightUpLeg
    {
        OFFSET -10.170634 0.000000 0.000000
        CHANNELS 3 Zrotation Xrotation Yrotation
        JOINT RightLeg
        {
            OFFSET -0.000000 -41.352962 0.000000
            CHANNELS 3 Zrotation Xrotation Yrotation
            JOINT RightFoot
            {
                OFFSET -0.000000 -47.535004 0.000000
                CHANNELS 3 Zrotation Xrotation Yrotation
                JOINT RightToeBase
                {
                    OFFSET -0.000000 -6.610912 15.255952
                    CHANNELS 3 Zrotation Xrotation Yrotation
                    End Site
                    {
                        OFFSET -0.000000 0.000000 4.068254
                    }
                }
            }
        }
    }
}
MOTION
Frames:    10
Frame Time:    0.008333
93.413857    92.416832    48.647465    -6.163156    4.272156    74.506744    -0.571166    -11.270527    -0.056462    -8.453708    12.347602    0.923672    -7.594845    19.254950    -5.125010    7.973790    -4.765274    -4.090243    4.290204    4.523623    -10.326374    -59.945538    53.443283    -12.239310    3.811532    -14.182006    -12.869279    -21.258587    -14.571161    4.429285    -11.696518    -1.214564    4.661913    61.903484    68.892944    19.525604    -6.465103    -10.320198    23.163074    -2.472016    -9.083870    3.342136    -3.998070    -8.142895    3.246814    -2.042498    3.500926    4.616387    4.814697    -8.532097    7.449064    0.000000    0.000000    0.000000    -4.453702    -14.098281    6.077298    -5.111291    58.546234    -2.678442    9.316236    17.030285    2.905104    0.000000    0.000000    0.000000    
94.371811    92.507973    48.657532    -5.952657    3.840874    74.774887    -0.474863    -11.112891    -0.282238    -8.110988    12.340891    0.642161    -7.351072    19.768103    -4.956847    7.685668    -4.249745    -4.031009    4.148449    4.429886    -10.408686    -59.163223    53.354931    -12.896972    4.036020    -14.395005    -12.997701    -20.517151    -14.772108    4.691267    -11.695049    -1.055672    4.490590    61.664085    68.668686    19.645296    -6.572353    -10.344081    23.263391    -2.527974    -9.078913    3.213097    -3.807054    -7.103092    3.582675    -2.040424    3.231417    4.054999    4.660920    -8.726292    7.377075    0.000000    0.000000    0.000000    -3.818907    -14.967008    6.014823    -4.929650    59.333069    -3.112385    8.700980    14.333032    3.205080    0.000000    0.000000    0.000000    
95.284470    92.608368    48.652615    -5.771599    3.470259    75.064949    -0.335208    -11.012942    -0.547612    -7.916619    12.448844    0.349492    -7.295112    20.016302    -4.923946    7.718454    -3.600170    -4.049209    4.336735    4.062180    -10.468035    -58.987408    53.220703    -13.246256    4.334773    -14.400256    -13.085389    -19.843403    -14.741418    4.855427    -11.742038    -1.228236    4.360808    62.220791    68.429604    19.073298    -6.735147    -10.282179    23.328842    -2.455007    -8.977942    3.230045    -3.682379    -6.119635    3.687621    -2.015312    2.894304    3.840126    4.402786    -8.785813    7.133629    0.000000    0.000000    0.000000    -3.296416    -15.985507    6.409370    -3.647516    60.145958    -4.500976    7.109582    11.561251    3.400689    0.000000    0.000000    0.000000    
96.191360    92.710968    48.645653    -5.631832    3.092425    75.316185    -0.107426    -10.894148    -0.810080    -7.797664    12.440493    0.051396    -7.239838    20.171705    -4.737299    7.720784    -2.597770    -3.929231    4.572794    3.930316    -10.566305    -58.752495    52.715584    -13.653187    4.528928    -14.401687    -13.274930    -19.076159    -14.708174    5.018845    -11.720643    -1.177360    4.286506    62.324078    68.270020    18.933384    -6.783706    -10.553980    23.485634    -3.746246    -9.253657    2.808701    -3.537367    -5.101589    3.926940    -1.986942    2.396675    3.650551    4.185926    -8.763308    6.791996    0.000000    0.000000    0.000000    -2.693879    -17.053450    6.306574    -3.426067    60.731976    -4.697485    6.744403    9.329022    3.131603    0.000000    0.000000    0.000000    
97.130989    92.819405    48.660767    -5.396936    2.698642    75.555656    -0.209362    -10.636868    -0.972006    -7.153004    12.374359    -0.176039    -7.103196    20.427462    -4.827229    7.612160    -1.746034    -4.108863    4.488635    3.965585    -10.799969    -58.057194    52.118347    -14.456803    4.624430    -14.397104    -13.455393    -18.310541    -14.673539    5.154551    -11.866287    -1.113623    3.936079    62.308830    68.412033    18.840919    -7.026165    -10.840691    23.446058    -3.353138    -9.487839    2.920585    -3.367317    -4.003973    4.374595    -1.975262    2.003588    3.105271    3.949266    -8.732013    6.593302    0.000000    0.000000    0.000000    -2.082161    -17.896687    6.086057    -3.368159    60.968010    -4.968502    6.401969    7.195125    2.829338    0.000000    0.000000    0.000000    
98.000694    92.919685    48.643257    -5.345215    2.396139    75.833786    0.056410    -10.800069    -1.340883    -7.227651    12.726210    -0.539074    -7.130857    20.514862    -4.575626    7.823382    -1.108284    -3.863153    4.803098    3.624087    -10.701999    -58.008511    51.652893    -14.624956    4.927321    -14.567540    -13.827219    -17.703474    -14.803444    5.400226    -11.730194    -1.278614    4.122941    62.616863    67.941299    18.407314    -7.043814    -10.909480    23.722479    -3.771827    -9.536241    2.609984    -3.245014    -3.071016    4.187636    -2.005530    1.414950    3.295330    3.924556    -8.489441    6.291554    0.000000    0.000000    0.000000    -1.510652    -18.981035    6.161100    -2.906254    61.199825    -5.779467    6.384532    5.350571    2.443532    0.000000    0.000000    0.000000    
98.882584    93.021049    48.649494    -5.208594    2.052014    76.094093    0.119120    -10.616691    -1.597664    -6.889461    12.680022    -0.842264    -7.014427    20.657679    -4.600487    7.657020    -0.315916    -3.971453    4.856291    3.696630    -10.653126    -57.180347    51.460514    -15.416802    5.129621    -14.874261    -14.334183    -17.110634    -15.071304    5.641232    -11.785445    -1.240333    3.878014    62.579758    67.923874    18.465572    -7.049690    -11.443892    23.749565    -4.319111    -10.077425    2.476729    -3.119549    -2.139848    4.162193    -1.937446    1.007381    3.446840    3.384540    -8.362496    5.835911    0.000000    0.000000    0.000000    -0.918084    -19.961132    6.338563    -2.104229    61.134304    -6.810556    6.401106    3.813539    1.962578    0.000000    0.000000    0.000000    
99.753502    93.133423    48.648312    -5.153396    1.766577    76.358315    0.122557    -10.621996    -1.864257    -6.540127    12.856576    -1.137911    -6.949741    20.667614    -4.512617    7.731239    0.341135    -3.910646    4.824313    3.158985    -10.551271    -56.975994    51.610630    -15.586321    5.533470    -15.189341    -14.606948    -16.541048    -15.293344    5.619146    -11.789895    -1.298138    3.728555    62.573856    67.930305    18.327166    -7.125572    -11.818731    23.919691    -4.916577    -10.435476    2.367411    -3.020918    -1.229700    4.140119    -1.893712    0.439277    3.438357    3.097355    -8.084526    5.549689    0.000000    0.000000    0.000000    -0.340179    -20.999516    6.331669    -1.774479    60.864403    -7.368078    5.754558    2.368787    1.700030    0.000000    0.000000    0.000000    
100.639519    93.222252    48.663883    -5.064940    1.476563    76.667793    0.098682    -10.509258    -2.145950    -6.172110    12.819196    -1.460951    -6.745395    20.784267    -4.429197    7.534939    0.969502    -3.890891    5.093461    3.441081    -10.670161    -56.448177    51.034702    -16.400787    5.874929    -15.467528    -15.005746    -15.983844    -15.497121    5.729227    -11.729562    -1.138791    3.687999    62.824402    67.416176    17.962574    -7.095605    -12.034327    24.046822    -5.209036    -10.661797    2.491717    -2.871272    -0.292502    3.857991    -1.944837    -0.054955    3.547114    2.884714    -7.905959    5.440144    0.000000    0.000000    0.000000    0.198026    -22.007168    6.372381    -1.213221    60.531105    -7.714492    4.957355    0.930951    1.204553    0.000000    0.000000    0.000000    
101.503754    93.310806    48.695518    -4.968953    1.175253    76.955208    -0.198075    -10.200397    -2.289084    -5.294055    12.542101    -1.689136    -6.646698    21.305578    -4.558852    7.517314    1.051555    -4.063181    4.952471    3.472163    -11.087214    -56.206215    50.306202    -16.750128    6.056386    -15.537045    -15.298930    -15.173731    -15.483195    5.687723    -11.736423    -0.852266    3.274718    62.826427    67.244865    17.641068    -7.114812    -12.346378    24.280342    -5.712219    -10.961973    2.385379    -2.692090    0.625559    3.791322    -1.981465    -0.552568    3.889040    2.567433    -7.708273    4.870772    0.000000    0.000000    0.000000    0.744946    -22.821339    6.260128    -1.077289    59.867695    -7.194123    3.616519    -0.717255    0.456963    0.000000    0.000000    0.000000    
